<?xml version="1.0" encoding="UTF-8" standalone="no"?>
<!-- Created with Inkscape (http://www.inkscape.org/) -->

<svg
   width="703"
   height="577.18445"
   viewBox="0 0 703 577.18445"
   version="1.1"
   id="svg1"
   xml:space="preserve"
   sodipodi:docname="ecomm-vector.svg"
   inkscape:version="1.3.2 (091e20e, 2023-11-25)"
   xmlns:inkscape="http://www.inkscape.org/namespaces/inkscape"
   xmlns:sodipodi="http://sodipodi.sourceforge.net/DTD/sodipodi-0.dtd"
   xmlns="http://www.w3.org/2000/svg"
   xmlns:svg="http://www.w3.org/2000/svg"><sodipodi:namedview
     id="namedview1"
     pagecolor="#ffffff"
     bordercolor="#000000"
     borderopacity="0.25"
     inkscape:showpageshadow="2"
     inkscape:pageopacity="0.0"
     inkscape:pagecheckerboard="0"
     inkscape:deskcolor="#d1d1d1"
     inkscape:zoom="1.0177699"
     inkscape:cx="409.71934"
     inkscape:cy="203.38586"
     inkscape:window-width="1440"
     inkscape:window-height="847"
     inkscape:window-x="0"
     inkscape:window-y="25"
     inkscape:window-maximized="1"
     inkscape:current-layer="layer1" /><defs
     id="defs1" /><g
     id="layer1"
     transform="translate(93.91526,41.441711)"><path
       style="fill:#f1b715"
       d="m 154.62915,508.45308 c -5.00528,-1.83272 -7.9911,-4.63627 -10.53556,-9.89244 -2.06544,-4.26662 -2.71691,-11.96263 -1.09738,-12.96355 0.50131,-0.30983 2.30524,0.22611 4.00874,1.19098 2.99852,1.69837 3.21657,1.68618 6.83854,-0.38226 4.58171,-2.61653 6.11163,-6.2192 4.47848,-10.54591 -0.64577,-1.71084 -0.93677,-3.49467 -0.64666,-3.96407 1.54421,-2.49859 11.81166,0.31069 16.2431,4.44427 5.72872,5.34366 8.00434,16.24728 4.71742,22.60349 -3.10604,6.0064 -11.66043,11.23007 -18.05109,11.02274 -1.1,-0.0357 -3.78001,-0.71665 -5.95559,-1.51325 z M 31.58474,139.38074 c -3.931761,-2.07277 -7.5,-5.37061 -7.5,-6.93164 0,-0.68456 0.660997,-2.51862 1.468883,-4.07569 0.807886,-1.55707 1.728573,-4.92262 2.045971,-7.479 0.736645,-5.93305 5.46321,-13.13921 10.043793,-15.31284 3.091667,-1.46709 7.38429,-1.62604 36.485353,-1.35096 30.69149,0.29012 33.01995,0.19026 33.53611,-1.43824 0.7918,-2.49816 2.21984,-2.17567 5.3891,1.21704 10.81757,11.58024 7.65177,29.69729 -6.20074,35.48523 -5.56358,2.32461 -70.830291,2.22584 -75.26847,-0.1139 z m 396.73936,-2.58837 c -2.48614,-3.09057 -7.39074,-14.29576 -9.17033,-20.95081 -3.92806,-14.68951 -6.98182,-37.988378 -5.30874,-40.50332 1.08916,-1.637205 33.9086,-2.026976 35.51381,-0.421769 2.03393,2.033933 -1.42676,30.094189 -5.14356,41.705319 -1.99489,6.23198 -7.25651,17.66252 -9.21845,20.02651 -1.43805,1.73275 -5.32721,1.81672 -6.67273,0.14407 z m -39.73936,-12.34511 c -7.52751,-4.49697 -11.21561,-7.99076 -18.20558,-17.24642 -5.5257,-7.316768 -11.46119,-20.09521 -12.73428,-27.415489 -0.59186,-3.403204 -0.40744,-3.850536 1.95833,-4.75 1.43645,-0.546138 8.18705,-0.992978 15.00132,-0.992978 h 12.38959 l 0.49361,3.25 c 0.27149,1.7875 0.76051,7.075 1.08671,11.75 0.74391,10.661249 3.02078,24.988607 5.06517,31.872807 0.86055,2.89778 1.42525,5.68445 1.25488,6.1926 -0.17036,0.50814 -3.00975,-0.68909 -6.30975,-2.66052 z m 80.77572,-1.15489 c 0.2765,-1.5125 1.41777,-7.48489 2.53617,-13.27199 1.1184,-5.78709 2.53346,-15.894934 3.14457,-22.461863 0.66607,-7.157507 1.59825,-12.249417 2.32733,-12.712695 1.85037,-1.175791 23.56977,-0.952191 25.84614,0.266085 2.18498,1.169367 2.05297,3.279414 -0.73564,11.75825 -4.06984,12.374409 -15.59648,27.578993 -27.29433,36.003443 -5.39234,3.88341 -6.47178,3.96102 -5.82424,0.41877 z M 367.33474,49.35923 c -2.3375,-0.237519 -4.25,-0.902102 -4.25,-1.47685 0,-2.893926 6.28646,-19.227638 9.57918,-24.889004 3.58907,-6.170875 16.30778,-19.9510026 18.41428,-19.9510026 1.25517,0 1.25277,3.281696 -0.006,8.4999996 -0.53079,2.2 -1.66842,11.2 -2.52807,20 -0.85965,8.8 -1.99789,16.435757 -2.52942,16.968348 -1.04931,1.051403 -11.85326,1.542161 -18.67973,0.848509 z m 46.18029,-1.429652 c -1.75738,-2.84351 1.99418,-32.92119 5.31906,-42.6448656 1.97654,-5.78043104 9.79209,-15.4367294 14.43903,-17.8397524 2.6327,-1.361425 3.25716,-1.385625 4.46957,-0.173213 2.2481,2.248103 7.20764,16.5161294 8.94817,25.742867 1.96131,10.397139 4.22608,31.892587 3.61152,34.277759 -0.40822,1.584348 -2.13812,1.75 -18.27525,1.75 -12.00869,0 -18.04875,-0.363079 -18.5121,-1.112795 z m 63.25492,0.362795 c -0.23805,-0.4125 -0.74478,-5.025 -1.12606,-10.25 -0.97048,-13.299425 -2.19583,-21.952903 -4.70925,-33.2569046 -1.19318,-5.36629804 -1.91435,-10.01198 -1.60259,-10.323737 2.02765,-2.027649 17.32812,11.272835 24.19612,21.0333376 7.4306,10.560062 14.47685,30.715983 11.4159,32.655404 -1.66755,1.056563 -27.57098,1.187027 -28.17412,0.1419 z"
       id="path309" /><path
       style="fill:#f36253"
       d="m 320.2177,410.05052 -88.36705,-0.50815 -4.39474,-15.5 c -2.4171,-8.525 -4.27693,-16.625 -4.13295,-18 l 0.26178,-2.5 h 99.20032 c 74.28399,0 99.49346,0.29322 100.36741,1.16741 0.88949,0.88973 -0.0698,4.81438 -4.03296,16.5 -5.47772,16.15134 -7.29987,19.98654 -9.30782,19.59074 -0.67482,-0.13301 -40.99212,-0.47051 -89.59399,-0.75 z M 97.406131,373.04237 c -30.606442,-0.47557 -32.316455,-0.60167 -35,-2.58102 -6.935855,-5.1158 -7.990398,-13.40029 -2.489426,-19.55695 3.806976,-4.26074 7.639608,-4.76784 36.418035,-4.81848 l 24.75,-0.0435 0.0833,-2.25 c 0.0458,-1.2375 0.69026,0.2489 1.4321,3.3031 0.74183,3.05421 2.73311,10.21294 4.42507,15.90828 1.69196,5.69535 2.96001,10.39645 2.8179,10.4469 -0.14211,0.0505 -14.73876,-0.13328 -32.436999,-0.40828 z M 216.39181,347.2303 c -2.56592,-0.36515 -2.34625,0.23469 -9.74059,-26.598 -3.01766,-10.95053 -5.25306,-20.28803 -4.96755,-20.75 0.28551,-0.46196 55.84255,-0.83993 123.46009,-0.83993 116.40614,0 122.94098,0.093 122.94098,1.74948 0,2.10302 -13.92476,44.39349 -15.00962,45.58526 -0.68891,0.75681 -211.52695,1.58698 -216.68331,0.85319 z m -23.64007,-74.93793 c -0.57239,-0.95179 -8.20943,-28.2446 -10.05914,-35.9488 -0.76605,-3.19066 -1.59245,-6.4762 -1.83644,-7.3012 -0.244,-0.825 -0.25488,-1.1625 -0.0242,-0.75 0.23069,0.4125 65.3748,0.75 144.76468,0.75 129.88961,0 144.50261,-0.15737 145.91666,-1.57143 1.72574,-1.72573 2.09807,-0.40031 0.65593,2.335 -0.50352,0.95504 -3.47239,9.61143 -6.59748,19.23643 -3.1251,9.625 -6.29016,18.9625 -7.03348,20.75 l -1.35148,3.25 h -131.992 c -72.59561,0 -132.19498,-0.3375 -132.44305,-0.75 z M 540.09188,257.5048 c -7.68908,-3.4564 -11.32764,-9.15238 -11.33531,-17.74486 -0.004,-4.7729 0.50638,-6.51875 2.92488,-10 6.21064,-8.93974 17.71713,-11.21575 26.12988,-5.16855 5.53645,3.97966 8.23328,8.25236 8.87228,14.05668 1.46961,13.34917 -14.17088,24.44017 -26.59173,18.85673 z M 179.24264,224.04237 c 0,-1.375 0.22697,-1.9375 0.50438,-1.25 0.27742,0.6875 0.27742,1.8125 0,2.5 -0.27741,0.6875 -0.50438,0.125 -0.50438,-1.25 z"
       id="path308"
       sodipodi:nodetypes="scsscssssssssscsssssssssssssssssssssscssscssssssss" /><path
       style="fill:#08bce4"
       d="m 405.13191,508.73745 c -5.00179,-1.59454 -10.44938,-7.48834 -11.98244,-12.96391 -1.87787,-6.7071 -0.10247,-16.15497 3.76196,-20.0194 4.27958,-4.27957 15.31308,-6.12107 21.85821,-3.64815 6.62042,2.50136 12.27118,10.99115 12.27118,18.43638 0,13.34729 -12.83698,22.36234 -25.90891,18.19508 z m 1.70127,-24.18901 c 4.01898,-4.67234 2.41129,-11.50607 -2.7069,-11.50607 -6.22725,0 -12.42185,9.42698 -8.94637,13.61466 2.00904,2.42076 8.81687,1.18892 11.65327,-2.10859 z m -202.69482,-6.00607 c -0.10861,-2.96919 -4.53438,-11.97115 -8.0149,-16.3022 -7.45105,-9.27184 -21.28297,-16.17579 -32.79813,-16.37059 -3.15732,-0.0534 -5.17809,-0.29889 -4.49059,-0.5455 0.87976,-0.31557 1.25,-3.23751 1.25,-9.86504 0,-5.17917 -0.1125,-9.51617 -0.25,-9.63778 -0.1375,-0.12161 -33.20412,-0.45911 -73.481375,-0.75 L 13.12199,424.54237 9.994238,421.41401 c -5.9609344,-5.96209 -4.7814032,-16.04004 2.38905,-20.41212 3.081571,-1.87895 5.458732,-1.95218 63.482836,-1.95578 54.464486,-0.003 60.340946,-0.15894 60.898586,-1.61214 0.4383,-1.14219 1.35155,-0.0552 3.15062,3.75 1.65958,3.51017 5.67826,8.51074 11.65096,14.49769 7.48227,7.50012 10.75094,9.95963 18.22458,13.71312 5.63422,2.82968 11.52599,4.96634 15.45045,5.60315 9.18002,1.48962 234.37885,1.42592 238.9442,-0.0676 1.86957,-0.61161 4.46297,-2.29911 5.7631,-3.75 1.8877,-2.10659 2.22119,-2.23511 1.65556,-0.63798 -3.55871,10.04834 -5.44062,16.81851 -4.91256,17.67293 0.35575,0.57562 -0.35303,0.49811 -1.61344,-0.17644 -3.32775,-1.78096 -16.69274,-2.41351 -22.99344,-1.08826 -11.82142,2.48644 -24.38235,11.70337 -29.79881,21.86569 -1.76065,3.30332 -3.21487,7.06805 -3.2316,8.36606 -0.0269,2.08464 -0.14934,2.15582 -1.04969,0.61002 -0.95738,-1.64373 -5.90674,-1.75 -81.50181,-1.75 h -80.48254 l -0.90439,2.25 c -0.8308,2.06692 -0.91034,2.08726 -0.97754,0.25 z m -87.16879,-0.34551 c -0.34835,-1.04506 -17.968197,-1.32929 -91.408183,-1.47455 -99.062044,-0.19593 -93.793812,0.12784 -97.52642,-5.99376 -3.572917,-5.85971 -1.929355,-13.43931 3.748661,-17.28768 2.699729,-1.82979 6.526061,-1.90821 105.71775,-2.16689 l 102.916642,-0.26838 -3.91664,2.62025 c -7.91088,5.29242 -15.04986,14.16627 -17.8096,22.13758 -0.70987,2.05042 -1.48486,3.14546 -1.72221,2.43343 z m 75.50392,-68.64288 c -8.66025,-1.88388 -13.94802,-4.88566 -20.9616,-11.89954 -7.78789,-7.78821 -12.00035,-16.48065 -17.25805,-35.61207 -5.47675,-19.9285 -27.77428,-98.78497 -42.21747,-149.30447 -6.5734,-22.99246 -11.95163,-42.67139 -11.95163,-43.73095 0,-1.29333 0.90379,-2.11845 2.75,-2.51061 8.87247,-1.88464 16.41383,-5.0043 21.75545,-8.99967 3.42531,-2.56201 6.29275,-4.0561 6.80376,-3.54509 0.90051,0.90051 9.28536,29.61782 32.58217,111.59079 7.19029,25.3 17.97259,63.1 23.96068,84 15.44073,53.89226 16.82564,59.45819 15.07072,60.56889 -1.80209,1.14055 -3.02691,1.07576 -10.53403,-0.55728 z M 78.58474,305.02121 c -17.6,-0.28663 -31.394467,-0.62413 -30.654371,-0.75 3.138374,-0.53372 7.170434,-4.55041 8.277704,-8.24615 1.58434,-5.28806 -0.974515,-12.3112 -5.488372,-15.06361 l -3.134961,-1.9116 26.782224,-0.004 26.782226,-0.004 0.90439,-2.25 c 0.75655,-1.8822 0.91475,-1.94616 0.96778,-0.39122 0.0707,2.07387 5.68352,22.80622 7.17979,26.52045 0.52716,1.30857 0.82913,2.43357 0.67103,2.5 -0.15809,0.0664 -14.68744,-0.11375 -32.28744,-0.40039 z m 406.5,-33.03786 c 0,-0.58246 0.45,-0.7809 1,-0.44098 0.55,0.33992 1,0.81648 1,1.05902 0,0.24254 -0.45,0.44098 -1,0.44098 -0.55,0 -1,-0.47656 -1,-1.05902 z m -405,-15.94098 c -15.393023,-0.46646 -16.725632,-0.66092 -19.86314,-2.89866 -6.976336,-4.97566 -7.782244,-14.145 -1.756543,-19.98534 4.257602,-4.12663 8.084694,-5.116 19.789757,-5.116 8.381284,0 9.744768,-0.2353 10.1406,-1.75 0.341427,-1.30651 0.48672,-1.17514 0.573324,0.51838 0.128376,2.51036 2.913201,13.23833 6.019447,23.1887 1.108653,3.55139 1.921418,6.47639 1.806144,6.5 -0.115274,0.0236 -7.634589,-0.18208 -16.709589,-0.45708 z m 246.5,-34 -147,-0.50997 146.69099,-0.24501 c 96.98043,-0.16199 146.90042,0.0939 147.30901,0.75498 0.33992,0.55 0.47898,0.88974 0.30902,0.75498 -0.16996,-0.13476 -66.45902,-0.4745 -147.30902,-0.75498 z m -156.37555,-29.25 c -0.56687,-1.7875 -4.00938,-13.6 -7.65003,-26.25 C 142.87495,98.146592 144.55433,102.96707 136.69128,92.291182 131.21909,84.86144 122.79423,78.397509 113.41025,74.428939 l -6.82551,-2.886566 h -37 c -34.194825,0 -36.886277,-0.123986 -35.5,-1.63536 0.825,-0.899447 2.738005,-3.447049 4.251122,-5.661336 1.663509,-2.434371 4.628515,-4.950531 7.5,-6.364641 l 4.748878,-2.338663 138.3993,-0.5 c 136.15498,-0.491892 138.41041,-0.531669 139.08427,-2.452933 0.37674,-1.074113 0.76591,3.297193 0.86483,9.714014 0.29144,18.904699 3.51163,32.2825 11.2311,46.657876 14.45116,26.91128 39.59418,46.09312 67.85444,51.76679 4.16134,0.83545 13.03098,1.58543 19.71033,1.66662 6.67935,0.0812 11.71968,0.41289 11.20075,0.73709 -0.54868,0.34278 -0.81829,7.3529 -0.64427,16.75138 l 0.29925,16.16193 -133.67245,-0.001 -133.67244,-0.001 z m -252.62445,-0.62189 c -7.723682,-3.62224 -11.5,-9.54479 -11.5,-18.03593 0,-7.28479 3.437142,-12.93236 9.937391,-16.32813 l 5.290992,-2.76405 h 26.690028 26.690027 l 4.646216,2.94654 c 13.4168743,8.50873 13.6843709,24.1058 0.562448,32.79492 l -4.165822,2.75854 -27.07564,0.25201 c -24.706152,0.22996 -27.425695,0.0878 -31.07564,-1.6239 z M 547.35417,179.0564 c -3.43772,-1.7384 -7.80458,-4.98958 -9.742,-7.25303 -4.20393,-4.91134 -7.52743,-13.28281 -7.52743,-18.96062 0,-10.86437 7.15829,-22.22042 17.3924,-27.59166 4.36624,-2.29157 6.34136,-2.68269 13.6076,-2.69469 9.88313,-0.0163 14.68647,1.9235 21.75957,8.78751 8.28575,8.04082 10.68607,21.88337 5.66996,32.69846 -5.28716,11.39951 -13.90846,17.08303 -26.92953,17.75308 -7.40767,0.3812 -8.46132,0.17839 -14.23057,-2.73905 z m 20.27603,-20.46858 c 4.80481,-4.80481 2.5012,-13.38486 -4.18617,-15.59189 -4.77637,-1.57634 -9.14429,0.28763 -10.98229,4.68659 -2.04183,4.88677 -1.70062,7.19007 1.54608,10.43677 3.88974,3.88974 9.99131,4.0996 13.62238,0.46853 z M 18.242634,115.04237 c 0,-1.375 0.226974,-1.9375 0.504386,-1.25 0.277413,0.6875 0.277413,1.8125 0,2.5 -0.277412,0.6875 -0.504386,0.125 -0.504386,-1.25 z m 1.842106,-5.94098 c 0,-0.51754 0.444845,-1.21591 0.988545,-1.55194 0.56686,-0.35034 0.734508,0.0511 0.393011,0.94099 -0.66479,1.73241 -1.381556,2.04938 -1.381556,0.61095 z m 5,-6.55902 c 1.865783,-1.925 3.617333,-3.499997 3.892333,-3.499997 0.275,0 -1.02655,1.574997 -2.892333,3.499997 -1.865784,1.925 -3.617334,3.5 -3.892334,3.5 -0.275,0 1.02655,-1.575 2.892334,-3.5 z m 25.75,-7.247715 c 7.8375,-0.168958 20.6625,-0.168958 28.5,0 7.8375,0.168957 1.425,0.307194 -14.25,0.307194 -15.675,0 -22.0875,-0.138237 -14.25,-0.307194 z m 47.0625,0.0646 c 0.721875,-0.288871 1.584375,-0.253344 1.916666,0.07895 0.332294,0.332292 -0.258333,0.568641 -1.3125,0.52522 -1.164943,-0.04798 -1.401899,-0.284941 -0.604166,-0.604167 z M 357.65796,34.042373 c 0.36779,-1.375 1.08576,-3.175 1.59549,-4 0.64411,-1.042487 0.72283,-0.737478 0.25808,1 -0.36779,1.375 -1.08577,3.175 -1.5955,4 -0.64411,1.042487 -0.72282,0.737478 -0.25807,-1 z m 2.45741,-6.5 c 0,-0.55 0.43622,-1.675 0.96937,-2.5 0.53316,-0.825 0.96938,-1.05 0.96938,-0.5 0,0.55 -0.43622,1.675 -0.96938,2.5 -0.53315,0.825 -0.96937,1.05 -0.96937,0.5 z m 4.96937,-9.877555 c 0,-0.207656 0.7875,-0.995156 1.75,-1.75 1.58606,-1.243871 1.62143,-1.208501 0.37756,0.377555 -1.30637,1.665748 -2.12756,2.195479 -2.12756,1.372445 z m 9.5,-11.4888386 c 1.65,-1.825588 4.8,-4.704668 7,-6.39795704 4.68501,-3.60594296 3.17669,-1.98629696 -4.5,4.83211904 -3.1929,2.835932 -4.24158,3.492756 -2.5,1.565838 z"
       id="path307" /><path
       style="fill:#162944"
       d="m 149.81921,533.95432 c -8.97845,-2.1153 -19.16223,-9.04593 -25.31093,-17.22552 -10.76097,-14.31524 -11.17152,-34.73019 -1.00364,-49.90677 4.63619,-6.91999 13.1436,-14.43773 17.35046,-15.33208 1.5013,-0.31917 4.75464,-1.42913 7.22964,-2.46658 9.51636,-3.98899 17.79814,-4.16363 28.06867,-0.59189 15.94213,5.54412 26.18094,18.03636 29.04397,35.43617 4.39477,26.7088 -17.14474,51.45732 -44.45173,51.07427 -3.9385,-0.0553 -8.8554,-0.49967 -10.92644,-0.9876 z m 22.18789,-26.67518 c 9.07363,-5.6152 11.58355,-16.33466 6.07404,-25.94123 -5.65989,-9.86878 -17.03991,-13.35744 -27.32724,-8.37743 -10.81444,5.23518 -12.62353,22.91835 -3.27196,31.98225 6.8448,6.63425 16.14811,7.52053 24.52516,2.33641 z m 228.57764,26.41572 c -17.74656,-4.62995 -31.70187,-20.74444 -33.17425,-38.30699 -1.65184,-19.70318 6.94676,-35.69534 23.96044,-44.56297 31.25041,-16.28789 69.52269,11.1043 64.57489,46.21747 -2.04841,14.537 -11.01878,26.5091 -25.06345,33.45036 -6.79387,3.3577 -8.6891,3.83479 -16.48695,4.15021 -5.21734,0.21104 -10.84987,-0.17563 -13.81068,-0.94808 z m 18.26847,-25.20022 c 10.32647,-4.31467 14.96321,-15.95726 10.33567,-25.95227 -3.47892,-7.51411 -9.56075,-11.52094 -17.41924,-11.47614 -11.76596,0.0671 -17.07852,3.96631 -18.81199,13.80735 -1.4507,8.2358 0.1326,14.17429 5.10476,19.14646 5.69409,5.69408 13.73192,7.42399 20.7908,4.4746 z M 184.32969,434.93297 c -12.42832,-2.07082 -31.25562,-14.9176 -40.57563,-27.68674 -5.79695,-7.94227 -11.99831,-25.42371 -20.18599,-56.90362 -6.69215,-25.72991 -9.91981,-37.39762 -11.97823,-43.30024 -3.76899,-10.80774 -8.4021,-28.21525 -9.41693,-35.38127 -0.52618,-3.71546 -1.39349,-7.28713 -1.92737,-7.93705 -1.407442,-1.71337 -7.711549,-20.97649 -9.722481,-29.70846 -2.859268,-12.41566 -17.582005,-64.38945 -18.592153,-65.6335 -0.639489,-0.78756 -7.302355,-1.2694 -20.741679,-1.5 l -19.799549,-0.33972 -9.402469,-4.68041 C 4.4363736,153.12543 -5.0966999,140.05793 -6.5566178,122.73541 -7.7050854,109.10837 -2.8676213,96.969054 8.0713602,86.027406 14.711828,79.38532 17.011767,77.951532 27.58474,73.862714 c 5.883148,-2.275152 6.710847,-2.320341 42.5,-2.320341 h 36.5 l 6.82551,2.886566 c 9.38398,3.96857 17.80884,10.432501 23.28103,17.862243 7.86305,10.675888 6.18367,5.85541 25.86788,74.251188 3.64065,12.65 7.06444,24.40575 7.60841,26.1239 l 0.98904,3.1239 162.32862,0.42234 c 151.32875,0.39372 162.50626,0.53874 164.95014,2.14003 3.58414,2.34842 5.73592,5.89029 6.31934,10.40173 0.38908,3.00869 -1.58409,9.75014 -9.59005,32.76489 -5.54395,15.93724 -10.07992,29.54974 -10.07992,30.25 0,0.89064 1.81779,1.27321 6.04966,1.27321 10.25118,0 15.95034,4.61367 15.95034,12.91235 0,9.30895 -4.45766,12.08765 -19.39132,12.08765 -5.76985,0 -10.75715,0.43121 -11.08287,0.95825 -0.32573,0.52703 -4.13124,11.28308 -8.4567,23.90232 -5.70954,16.65722 -7.5637,23.24484 -6.76679,24.04175 0.60373,0.60372 4.09114,1.09768 7.7498,1.09768 5.27265,0 7.35674,0.47417 10.05,2.28656 8.3483,5.61787 6.40545,17.92512 -3.41722,21.64683 -1.5483,0.58663 -7.2307,1.06661 -12.62755,1.06661 -6.67422,0 -10.11774,0.39978 -10.76699,1.25 -0.52499,0.6875 -4.69601,12.275 -9.26892,25.75 -9.3417,27.52716 -12.21868,32.8437 -18.84768,34.8298 -4.71492,1.41262 -231.47075,1.47008 -239.92881,0.0608 z m 18.67783,-24.82171 c 1.75492,-1.1107 0.37001,-6.67663 -15.07072,-60.56889 -5.98809,-20.9 -16.77039,-58.7 -23.96068,-84 -23.29681,-81.97297 -31.68166,-110.69028 -32.58217,-111.59079 -0.51101,-0.51101 -3.37845,0.98308 -6.80376,3.54509 -5.34162,3.99537 -12.88298,7.11503 -21.75545,8.99967 -1.84621,0.39216 -2.75,1.21728 -2.75,2.51061 0,1.05956 5.37823,20.73849 11.95163,43.73095 14.44319,50.5195 36.74072,129.37597 42.21747,149.30447 5.2577,19.13142 9.47016,27.82386 17.25805,35.61207 7.01358,7.01388 12.30135,10.01566 20.9616,11.89954 7.50712,1.63304 8.73194,1.69783 10.53403,0.55728 z m 209.47153,-1.31889 c 0.79223,-1.2375 3.78044,-9.14967 6.64046,-17.58259 3.96318,-11.68562 4.92245,-15.61027 4.03296,-16.5 -0.87395,-0.87419 -26.08342,-1.16741 -100.36741,-1.16741 h -99.20032 l -0.26178,2.5 c -0.14398,1.375 1.71585,9.475 4.13295,18 l 4.39474,15.5 88.36705,0.50815 c 48.60187,0.27949 88.91917,0.61699 89.59399,0.75 0.67482,0.13302 1.87513,-0.77065 2.66736,-2.00815 z m 20.59607,-62.41526 c 1.08486,-1.19177 15.00962,-43.48224 15.00962,-45.58526 0,-1.65649 -6.53484,-1.74948 -122.94098,-1.74948 -67.61754,0 -123.17458,0.37797 -123.46009,0.83993 -0.28551,0.46197 1.94989,9.79947 4.96755,20.75 7.39434,26.83269 7.17467,26.23285 9.74059,26.598 5.15636,0.73379 215.9944,-0.0964 216.68331,-0.85319 z m 25.46316,-76.58474 c 0.74332,-1.7875 3.91602,-11.125 7.05046,-20.75 3.13443,-9.625 6.1172,-18.4 6.62838,-19.5 0.51118,-1.1 1.02802,-3.35 1.14852,-5 l 0.2191,-3 -146.78011,-0.25332 c -129.46555,-0.22345 -146.84776,-0.077 -147.3536,1.24117 -0.31542,0.82198 0.13787,3.63597 1.00731,6.25333 0.86945,2.61735 3.88277,13.30677 6.69628,23.75426 2.81351,10.44749 5.32532,19.33499 5.58181,19.75 0.25649,0.41501 59.86275,0.75456 132.45836,0.75456 H 457.1868 Z M 108.78901,139.94348 c 5.29895,-2.56517 9.8622,-8.87037 11.47432,-15.85446 0.98638,-4.27322 0.90751,-5.93221 -0.49332,-10.37613 -2.00109,-6.34822 -7.37756,-12.92519 -13.04271,-15.955008 -3.99229,-2.135142 -5.31046,-2.226429 -36.338527,-2.516551 -31.171044,-0.29146 -32.356591,-0.231945 -37.241643,1.869548 -15.21879,6.546951 -19.788622,24.713411 -9.299358,36.967751 6.816596,7.96366 6.27476,7.8697 45.671243,7.91954 33.487335,0.0424 35.113865,-0.0427 39.269995,-2.05469 z M -39.017377,369.75977 c -2.184703,-1.46762 -3.922434,-3.78838 -4.867049,-6.5 -1.292222,-3.70946 -1.292222,-4.71835 0,-8.37681 0.808041,-2.28768 2.738539,-5.10018 4.289995,-6.25 2.655019,-1.9677 4.418434,-2.11998 29.9999996,-2.59059 29.7049714,-0.54647 34.8423784,-0.11204 38.4995254,3.25557 7.45768,6.86725 5.546165,18.36224 -3.635454,21.86199 -1.273305,0.48534 -15.4942577,0.88244 -31.6021172,0.88244 -28.8365828,0 -29.3392758,-0.0351 -32.6848998,-2.2826 z m -29.863255,-66.01153 c -7.081251,-2.46411 -10.141862,-11.73763 -6.075113,-18.40732 3.955326,-6.48695 2.006689,-6.29894 65.2408246,-6.29481 65.3750064,0.004 61.9401334,-0.43971 65.3330484,8.44451 2.294801,6.00886 0.905783,11.38898 -3.808482,14.75152 l -3.224906,2.30023 -57.0000004,0.20587 c -42.3679046,0.15302 -57.8895726,-0.10368 -60.4653716,-1 z m 56.465372,-50.56643 c -6.839573,-4.22477 -9.055264,-10.48141 -6.16311,-17.40331 2.834981,-6.78506 5.826802,-7.72812 24.5307563,-7.73239 l 16.3676477,-0.004 3.882353,3.88235 c 6.8228,6.8228 5.125575,17.28811 -3.433964,21.17427 -6.108481,2.77334 -30.7340914,2.83131 -35.183683,0.0828 z M 416.1227,161.95295 c -27.06234,-3.50026 -49.95434,-16.65955 -66.33507,-38.1322 -14.75527,-19.34191 -20.71023,-37.456242 -20.80232,-63.278377 -0.0896,-25.127515 6.74111,-44.576627 22.48901,-64.0329266 13.71201,-16.9409924 32.66869,-29.2691724 54.11042,-35.1898634 8.93127,-2.466186 11.65654,-2.761294 25.5,-2.761294 13.81951,0 16.56072,0.295684 25.28349,2.727233 44.26349,12.338838 73.98734,48.6421584 76.43534,93.354563 2.15702,39.397524 -19.7047,77.764035 -54.57233,95.772465 -12.10753,6.25329 -18.29612,8.31829 -31.99587,10.67633 -11.88505,2.04569 -19.32615,2.25921 -30.11267,0.86407 z m 20.78319,-26.65941 c 5.4953,-7.71743 10.41515,-25.35389 12.77311,-45.788516 1.22328,-10.601143 1.30262,-13.881983 0.36309,-15.014044 -0.96249,-1.15973 -4.51805,-1.445553 -17.82979,-1.433294 -9.14516,0.0084 -17.26858,0.421008 -18.05205,0.916858 -3.99889,2.53086 2.69299,42.202396 9.58001,56.793206 4.45691,9.4424 8.64062,10.88058 13.16563,4.52579 z m -43.22798,-17.29569 c -2.52122,-9.95017 -5.59317,-31.102193 -5.59317,-38.512036 0,-3.300074 -0.4746,-4.627071 -1.93426,-5.408257 -2.13793,-1.144188 -18.15621,-1.395719 -25.42617,-0.39926 -5.6637,0.776297 -5.84167,1.903709 -2.0818,13.187759 3.57016,10.714691 9.51249,20.276664 17.83491,28.698644 7.09328,7.17815 17.39021,14.09478 18.83392,12.65108 0.41934,-0.41935 -0.3157,-5.01742 -1.63343,-10.21793 z m 91.40683,-2.94687 c 11.39149,-11.40302 19.06364,-24.897975 20.62303,-36.274927 l 0.60594,-4.420853 -7.76536,-0.656413 c -11.98419,-1.013035 -20.92529,-0.79473 -22.26361,0.543586 -0.66,0.66 -1.2,3.709305 -1.2,6.776234 0,8.389753 -1.78357,21.304923 -4.53708,32.853813 -1.35461,5.68153 -2.46292,11.22282 -2.46292,12.31399 0,1.92816 0.11949,1.91912 4.25,-0.32145 2.3375,-1.26796 8.075,-6.13425 12.75,-10.81398 z M 386.82605,48.792373 c 0.54241,-0.6875 1.2816,-5.975 1.64264,-11.75 0.91577,-14.647865 3.39792,-29.3561416 6.22197,-36.86905864 3.05083,-8.11621396 3.07363,-9.47390196 0.14408,-8.57641196 -4.47779,1.371804 -15.80557,9.686982 -20.77978,15.253439 -9.99317,11.1829866 -15.51377,21.5202366 -18.04964,33.7976946 -1.98701,9.620142 -2.34577,9.394337 14.92559,9.394337 10.73452,0 15.18507,-0.349994 15.89514,-1.25 z m 63.1234,0.354775 c 1.06902,-0.677265 1.21605,-2.678165 0.67859,-9.234687 -2.42597,-29.594791 -8.00882,-49.8767886 -15.45345,-56.141031 -1.78381,-1.500981 -3.61216,-2.729057 -4.06298,-2.729057 -1.57301,0 -7.23927,7.329696 -9.19708,11.8970734 -2.58349,6.026999 -5.48844,16.865822 -6.86193,25.6029266 -1.55762,9.908417 -2.97415,28.320039 -2.31167,30.046424 0.45905,1.196258 3.68103,1.450865 18.2008,1.438263 9.70366,-0.0084 18.25713,-0.404382 19.00772,-0.879912 z m 56.62888,-0.09439 c 0.86595,-1.401137 -0.95726,-10.503937 -3.4243,-17.096575 -2.98081,-7.965614 -8.60173,-16.788395 -15.79281,-24.7889076 -6.14661,-6.83848704 -17.71499,-15.58995 -19.30723,-14.605892 -0.45133,0.278936 0.055,3.53877 1.12523,7.24407496 2.8191,9.76039404 4.76857,21.73152064 5.8365,35.84018564 0.51513,6.80539 1.21795,12.828679 1.56182,13.385085 0.82619,1.336793 29.17535,1.357609 30.00079,0.02203 z M 22.926167,28.518302 C 16.960577,25.278109 14.400206,16.702646 17.720281,11.082206 21.546152,4.6055234 11.638354,5.0419914 154.73903,5.0461114 c 128.47167,0.0037 129.88074,0.0251 133.15589,2.021897 8.21109,5.0061666 7.48512,17.2336996 -1.26987,21.3882116 -2.99951,1.423362 -16.56662,1.582044 -132.19144,1.546115 C 44.070003,29.968042 25.203328,29.755135 22.926167,28.518302 Z M 553.09188,10.44939 c -7.38555,-3.2027866 -11.29285,-9.0525786 -11.29285,-16.9070166 0,-19.4272054 26.19807,-25.7053074 35.43045,-8.4905474 4.68209,8.7302714 0.90591,19.7931304 -8.32658,24.3938734 -5.86867,2.9244836 -10.67774,3.2297656 -15.81102,1.0036906 z"
       id="path306" /></g></svg>
